<mxfile host="app.diagrams.net" modified="2024-03-19T07:16:15.754Z" agent="Mozilla/5.0 (Windows NT 10.0; Win64; x64) AppleWebKit/537.36 (KHTML, like Gecko) Chrome/122.0.0.0 Safari/537.36" etag="f0YqyhMZDCVQymsiPbB_" version="24.0.7" type="github">
  <diagram name="第 1 页" id="X4h0lDhVr6DsjgSZqi_2">
    <mxGraphModel dx="1621" dy="1615" grid="1" gridSize="10" guides="1" tooltips="1" connect="1" arrows="1" fold="1" page="1" pageScale="1" pageWidth="827" pageHeight="1169" math="0" shadow="0">
      <root>
        <mxCell id="0" />
        <mxCell id="1" parent="0" />
        <mxCell id="lKBQZbkwnr8usIHEwACZ-23" value="" style="rounded=0;whiteSpace=wrap;html=1;" vertex="1" parent="1">
          <mxGeometry x="-190" y="-145" width="320" height="160" as="geometry" />
        </mxCell>
        <mxCell id="lKBQZbkwnr8usIHEwACZ-7" value="" style="rounded=0;whiteSpace=wrap;html=1;" vertex="1" parent="1">
          <mxGeometry x="270" y="100" width="200" height="190" as="geometry" />
        </mxCell>
        <mxCell id="lKBQZbkwnr8usIHEwACZ-1" value="" style="rounded=0;whiteSpace=wrap;html=1;" vertex="1" parent="1">
          <mxGeometry x="-200" y="115" width="320" height="160" as="geometry" />
        </mxCell>
        <mxCell id="lKBQZbkwnr8usIHEwACZ-2" value="建行（CCB）" style="rounded=0;whiteSpace=wrap;html=1;" vertex="1" parent="1">
          <mxGeometry x="265" y="-120" width="210" height="110" as="geometry" />
        </mxCell>
        <mxCell id="lKBQZbkwnr8usIHEwACZ-3" value="农行（ABC）" style="rounded=0;whiteSpace=wrap;html=1;" vertex="1" parent="1">
          <mxGeometry x="310" y="120" width="120" height="60" as="geometry" />
        </mxCell>
        <mxCell id="lKBQZbkwnr8usIHEwACZ-4" value="中行（BOC）" style="rounded=0;whiteSpace=wrap;html=1;" vertex="1" parent="1">
          <mxGeometry x="310" y="210" width="120" height="60" as="geometry" />
        </mxCell>
        <mxCell id="lKBQZbkwnr8usIHEwACZ-5" value="银企直连服务器" style="text;strokeColor=none;align=center;fillColor=none;html=1;verticalAlign=middle;whiteSpace=wrap;rounded=0;" vertex="1" parent="1">
          <mxGeometry x="-190" y="115" width="60" height="30" as="geometry" />
        </mxCell>
        <mxCell id="lKBQZbkwnr8usIHEwACZ-11" style="edgeStyle=orthogonalEdgeStyle;rounded=0;orthogonalLoop=1;jettySize=auto;html=1;entryX=0;entryY=0.5;entryDx=0;entryDy=0;" edge="1" parent="1" source="lKBQZbkwnr8usIHEwACZ-6" target="lKBQZbkwnr8usIHEwACZ-9">
          <mxGeometry relative="1" as="geometry" />
        </mxCell>
        <mxCell id="lKBQZbkwnr8usIHEwACZ-6" value="ABC的前置机" style="text;strokeColor=default;align=center;fillColor=default;html=1;verticalAlign=middle;whiteSpace=wrap;rounded=0;" vertex="1" parent="1">
          <mxGeometry x="70" y="155" width="60" height="30" as="geometry" />
        </mxCell>
        <mxCell id="lKBQZbkwnr8usIHEwACZ-12" style="edgeStyle=orthogonalEdgeStyle;rounded=0;orthogonalLoop=1;jettySize=auto;html=1;entryX=0;entryY=0.5;entryDx=0;entryDy=0;" edge="1" parent="1" source="lKBQZbkwnr8usIHEwACZ-8" target="lKBQZbkwnr8usIHEwACZ-10">
          <mxGeometry relative="1" as="geometry" />
        </mxCell>
        <mxCell id="lKBQZbkwnr8usIHEwACZ-8" value="BOC的前置机" style="text;strokeColor=default;align=center;fillColor=default;html=1;verticalAlign=middle;whiteSpace=wrap;rounded=0;" vertex="1" parent="1">
          <mxGeometry x="70" y="220" width="60" height="30" as="geometry" />
        </mxCell>
        <mxCell id="lKBQZbkwnr8usIHEwACZ-9" value="API" style="rounded=0;whiteSpace=wrap;html=1;" vertex="1" parent="1">
          <mxGeometry x="280" y="140" width="40" height="20" as="geometry" />
        </mxCell>
        <mxCell id="lKBQZbkwnr8usIHEwACZ-10" value="API" style="rounded=0;whiteSpace=wrap;html=1;" vertex="1" parent="1">
          <mxGeometry x="280" y="230" width="40" height="20" as="geometry" />
        </mxCell>
        <mxCell id="lKBQZbkwnr8usIHEwACZ-14" style="edgeStyle=orthogonalEdgeStyle;rounded=0;orthogonalLoop=1;jettySize=auto;html=1;entryX=0;entryY=0.5;entryDx=0;entryDy=0;" edge="1" parent="1" source="lKBQZbkwnr8usIHEwACZ-13" target="lKBQZbkwnr8usIHEwACZ-6">
          <mxGeometry relative="1" as="geometry" />
        </mxCell>
        <mxCell id="lKBQZbkwnr8usIHEwACZ-15" value="TCP发送XML请求" style="edgeLabel;html=1;align=center;verticalAlign=middle;resizable=0;points=[];" vertex="1" connectable="0" parent="lKBQZbkwnr8usIHEwACZ-14">
          <mxGeometry x="-0.0762" y="-1" relative="1" as="geometry">
            <mxPoint as="offset" />
          </mxGeometry>
        </mxCell>
        <mxCell id="lKBQZbkwnr8usIHEwACZ-13" value="银企直连ABC" style="rounded=0;whiteSpace=wrap;html=1;" vertex="1" parent="1">
          <mxGeometry x="-180" y="150" width="80" height="40" as="geometry" />
        </mxCell>
        <mxCell id="lKBQZbkwnr8usIHEwACZ-17" style="edgeStyle=orthogonalEdgeStyle;rounded=0;orthogonalLoop=1;jettySize=auto;html=1;" edge="1" parent="1" source="lKBQZbkwnr8usIHEwACZ-16" target="lKBQZbkwnr8usIHEwACZ-8">
          <mxGeometry relative="1" as="geometry" />
        </mxCell>
        <mxCell id="lKBQZbkwnr8usIHEwACZ-18" value="HTTP发送XML请求" style="edgeLabel;html=1;align=center;verticalAlign=middle;resizable=0;points=[];" vertex="1" connectable="0" parent="lKBQZbkwnr8usIHEwACZ-17">
          <mxGeometry x="0.0392" y="-1" relative="1" as="geometry">
            <mxPoint as="offset" />
          </mxGeometry>
        </mxCell>
        <mxCell id="lKBQZbkwnr8usIHEwACZ-16" value="银企直连BOC" style="rounded=0;whiteSpace=wrap;html=1;" vertex="1" parent="1">
          <mxGeometry x="-180" y="215" width="80" height="40" as="geometry" />
        </mxCell>
        <mxCell id="lKBQZbkwnr8usIHEwACZ-19" value="&lt;b&gt;已上线&lt;/b&gt;" style="text;strokeColor=none;align=center;fillColor=none;html=1;verticalAlign=middle;whiteSpace=wrap;rounded=0;" vertex="1" parent="1">
          <mxGeometry x="-200" y="85" width="60" height="30" as="geometry" />
        </mxCell>
        <mxCell id="lKBQZbkwnr8usIHEwACZ-20" value="API" style="rounded=0;whiteSpace=wrap;html=1;" vertex="1" parent="1">
          <mxGeometry x="240" y="-75" width="40" height="20" as="geometry" />
        </mxCell>
        <mxCell id="lKBQZbkwnr8usIHEwACZ-22" style="edgeStyle=orthogonalEdgeStyle;rounded=0;orthogonalLoop=1;jettySize=auto;html=1;entryX=0;entryY=0.5;entryDx=0;entryDy=0;" edge="1" parent="1" source="lKBQZbkwnr8usIHEwACZ-21" target="lKBQZbkwnr8usIHEwACZ-20">
          <mxGeometry relative="1" as="geometry" />
        </mxCell>
        <mxCell id="lKBQZbkwnr8usIHEwACZ-25" value="专线" style="edgeLabel;html=1;align=center;verticalAlign=middle;resizable=0;points=[];" vertex="1" connectable="0" parent="lKBQZbkwnr8usIHEwACZ-22">
          <mxGeometry x="0.0061" y="3" relative="1" as="geometry">
            <mxPoint as="offset" />
          </mxGeometry>
        </mxCell>
        <mxCell id="lKBQZbkwnr8usIHEwACZ-21" value="银企直连CCB" style="rounded=0;whiteSpace=wrap;html=1;" vertex="1" parent="1">
          <mxGeometry x="-170" y="-85" width="80" height="40" as="geometry" />
        </mxCell>
        <mxCell id="lKBQZbkwnr8usIHEwACZ-24" value="银企直连服务器" style="text;strokeColor=none;align=center;fillColor=none;html=1;verticalAlign=middle;whiteSpace=wrap;rounded=0;" vertex="1" parent="1">
          <mxGeometry x="-180" y="-145" width="60" height="30" as="geometry" />
        </mxCell>
      </root>
    </mxGraphModel>
  </diagram>
</mxfile>
